<!DOCTYPE svg PUBLIC "-//W3C//DTD SVG 1.1//EN" "http://www.w3.org/Graphics/SVG/1.1/DTD/svg11.dtd">
<!-- Uploaded to: SVG Repo, www.svgrepo.com, Transformed by: SVG Repo Mixer Tools -->
<svg fill="#0285c7" height="800px" width="800px" version="1.1" id="Layer_1" xmlns="http://www.w3.org/2000/svg" xmlns:xlink="http://www.w3.org/1999/xlink" viewBox="0 0 512.001 512.001" xml:space="preserve">
<g id="SVGRepo_bgCarrier" stroke-width="0"/>
<g id="SVGRepo_tracerCarrier" stroke-linecap="round" stroke-linejoin="round"/>
<g id="SVGRepo_iconCarrier"> <g> <g> <path d="M223.431,131.351l-64.189-64.189c-6.171-6.171-16.178-6.171-22.348,0L4.629,199.426c-6.171,6.171-6.171,16.177,0,22.348 l64.189,64.189c6.17,6.17,16.18,6.168,22.348,0l132.266-132.265C229.603,147.527,229.603,137.522,223.431,131.351z"/> </g> </g> <g> <g> <path d="M507.372,199.425L375.107,67.16c-6.171-6.171-16.178-6.171-22.348,0l-64.189,64.189c-6.171,6.171-6.171,16.177,0,22.348 l132.266,132.266c6.17,6.17,16.18,6.168,22.348-0.001l64.189-64.189C513.544,215.602,513.544,205.595,507.372,199.425z"/> </g> </g> <g> <g> <path d="M373.055,280.971c-13.372-13.373-75.959-75.962-98.531-98.527c-6.434-6.431-14.587-10.852-23.407-12.78 c-4.477,6.404-139.435,140.486-141.67,142.266c1.984,8.636,6.362,16.612,12.68,22.93l95.175,95.163 c34.206,34.235,68.215,17.49,80.154-6.02l-60.45-60.449c-6.171-6.171-6.171-16.177,0-22.348c6.17-6.171,16.177-6.171,22.348,0 l60.264,60.264c12.743-6.195,22.683-18.317,25.42-33.444l-56.252-56.252c-6.171-6.171-6.171-16.177,0-22.348 c6.17-6.171,16.177-6.171,22.348,0l61.975,61.976C392.802,334.269,396.064,303.985,373.055,280.971z"/> </g> </g> </g>
</svg>