<?xml version="1.0" standalone="no"?>
<!DOCTYPE svg PUBLIC "-//W3C//DTD SVG 20010904//EN"
 "http://www.w3.org/TR/2001/REC-SVG-20010904/DTD/svg10.dtd">
<svg version="1.0" xmlns="http://www.w3.org/2000/svg"
 width="300.000000pt" height="175.000000pt" viewBox="170 57 64 30"
 preserveAspectRatio="xMidYMid meet">
<metadata>
Created by potrace 1.10, written by Peter Selinger 2001-2011
</metadata>
<g transform="translate(0.000000,175.000000) scale(0.100000,-0.100000)"
fill="#137ED9" stroke="none">
<path d="M1801 1048 c-35 -86 -73 -161 -85 -170 -21 -17 -20 -18 33 -18 52 0
53 0 32 18 -20 16 -21 19 -8 57 l14 40 64 3 65 3 13 -38 c8 -21 16 -44 18 -50
3 -7 -6 -17 -18 -22 -17 -7 12 -10 101 -10 90 0 120 2 108 10 -15 8 -18 25
-18 106 0 83 -2 94 -16 89 -9 -3 -27 -6 -40 -6 -29 0 -32 -16 -4 -23 19 -5 21
-12 18 -84 -3 -76 -4 -78 -30 -81 -34 -4 -41 7 -113 178 -31 74 -60 138 -64
143 -4 4 -36 -61 -70 -145z m81 7 l26 -65 -54 0 c-30 0 -54 3 -54 6 0 14 45
124 51 124 3 0 17 -29 31 -65z"/>
<path d="M2081 1190 c-19 -11 -9 -45 14 -45 13 0 21 8 23 21 3 23 -17 37 -37
24z"/>
<path d="M2210 1063 c-45 -15 -45 -15 -22 -24 20 -8 22 -15 22 -84 0 -69 -2
-76 -22 -85 -17 -6 -7 -9 42 -9 49 0 59 3 43 9 -21 8 -23 16 -23 75 0 53 4 69
22 87 19 19 22 20 33 5 16 -23 35 -21 35 2 0 40 -65 35 -89 -7 -9 -14 -10 -13
-11 11 0 27 -3 29 -30 20z"/>
</g>
</svg>
