<?xml version="1.0" standalone="no"?>
<!DOCTYPE svg PUBLIC "-//W3C//DTD SVG 20010904//EN"
 "http://www.w3.org/TR/2001/REC-SVG-20010904/DTD/svg10.dtd">
<svg version="1.0" xmlns="http://www.w3.org/2000/svg"
 width="300.000000pt" height="175.000000pt" viewBox="0 0 300.000000 175.000000"
 preserveAspectRatio="xMidYMid meet">
<metadata>
Created by potrace 1.10, written by Peter Selinger 2001-2011
</metadata>
<g transform="translate(0.000000,175.000000) scale(0.100000,-0.100000)"
fill="#137ED9" stroke="none">
<path d="M1 1476 c-3 -41 146 -474 226 -654 30 -68 52 -126 49 -129 -3 -3 -32
4 -65 17 -67 25 -53 2 -158 250 -29 69 -53 119 -53 112 0 -17 72 -197 106
-264 14 -27 23 -52 20 -55 -3 -3 -31 13 -63 36 -31 22 -59 38 -61 36 -3 -2 16
-41 42 -86 25 -45 45 -84 42 -86 -2 -2 -21 19 -42 47 -21 27 -39 50 -41 50
-14 0 9 -31 80 -108 45 -50 112 -124 150 -165 67 -75 240 -203 258 -191 5 3 8
0 7 -7 -8 -35 308 -164 462 -188 36 -6 139 -11 230 -12 91 -1 193 -4 226 -8
59 -6 61 -7 53 -28 -5 -13 -13 -23 -18 -23 -6 0 -8 7 -5 15 4 8 1 15 -6 15
-16 0 -112 -42 -107 -47 2 -2 25 6 51 17 58 24 68 25 39 2 -23 -17 -23 -17 17
-18 35 -1 41 2 46 22 8 30 18 30 31 1 8 -17 18 -22 47 -22 l36 0 -22 17 c-30
23 -20 22 38 -2 26 -11 52 -19 58 -17 6 2 -26 17 -71 33 -66 24 -80 32 -72 44
6 11 11 12 17 4 8 -14 485 -1 542 14 78 20 281 92 326 115 27 14 72 43 101 64
29 21 79 55 111 75 33 21 94 75 135 120 42 46 112 122 157 171 44 48 80 93 80
99 0 14 -3 11 -49 -50 -36 -47 -56 -51 -23 -5 20 29 72 128 72 138 0 3 -27
-12 -59 -35 -33 -22 -62 -40 -65 -40 -3 0 7 26 21 57 51 114 103 247 103 262
0 9 -20 -31 -43 -89 -24 -58 -58 -138 -76 -177 -33 -70 -36 -73 -88 -93 -62
-23 -77 -25 -70 -7 3 6 31 71 62 142 63 144 218 598 213 624 -2 9 -12 -13 -22
-49 -89 -317 -256 -732 -300 -745 -11 -3 -133 -10 -271 -15 -283 -10 -355 -23
-477 -87 -135 -71 -322 -283 -403 -456 l-23 -48 -42 78 c-100 185 -256 357
-388 426 -122 64 -194 77 -477 87 -137 5 -260 12 -271 15 -37 11 -137 247
-240 565 -68 211 -82 251 -83 236z m94 -722 c13 -9 30 -12 36 -8 7 4 9 3 5 -4
-3 -6 -2 -14 4 -17 6 -4 23 -32 39 -63 16 -31 45 -81 64 -109 20 -29 33 -53
30 -53 -3 0 -18 9 -35 21 -16 12 -31 19 -34 16 -3 -3 16 -18 43 -33 26 -16 57
-40 68 -54 11 -14 37 -43 58 -65 32 -32 35 -34 19 -10 -11 17 -29 39 -41 49
-34 30 -25 35 33 17 45 -14 65 -29 126 -94 40 -42 70 -77 67 -77 -17 0 -98 35
-129 56 -21 13 -38 22 -38 19 0 -3 -20 8 -44 24 -49 34 -179 162 -171 169 5 6
-76 97 -87 97 -3 0 -10 4 -15 9 -5 5 -3 6 5 2 19 -11 16 -4 -34 80 -41 69 -43
76 -20 61 14 -9 37 -24 51 -33z m2866 11 c-12 -19 -30 -51 -42 -70 -11 -19
-17 -40 -13 -46 4 -7 3 -9 -3 -6 -6 4 -23 -12 -39 -34 -15 -22 -36 -45 -46
-50 -10 -6 -16 -14 -13 -19 7 -12 -109 -128 -170 -170 l-50 -34 65 72 c36 40
84 84 108 98 24 14 41 28 38 31 -3 3 -19 -5 -35 -17 -17 -12 -31 -20 -31 -18
0 2 29 53 64 112 56 93 72 113 123 147 32 21 59 39 61 39 2 0 -6 -16 -17 -35z
m-137 -77 c-9 -18 -41 -72 -70 -119 -52 -83 -56 -87 -114 -109 -33 -12 -63
-21 -65 -18 -2 2 10 26 28 54 19 27 49 76 67 109 19 33 37 62 42 63 4 2 6 7 3
11 -2 5 6 6 18 4 12 -2 40 5 62 16 22 11 41 20 43 20 1 1 -5 -14 -14 -31z
m-2609 6 c21 -8 46 -13 57 -11 10 3 16 1 13 -3 -3 -5 -1 -10 4 -12 5 -1 31
-41 58 -88 27 -47 57 -97 67 -112 10 -16 14 -28 8 -28 -28 0 -120 44 -132 63
-38 59 -120 197 -120 202 0 7 4 7 45 -11z m375 -45 c270 -9 348 -22 465 -80
73 -36 172 -116 232 -187 64 -75 164 -228 169 -259 3 -15 7 -29 9 -33 4 -6
-185 -4 -391 4 -94 4 -263 31 -252 41 2 1 111 -1 243 -6 213 -7 274 -13 350
-36 11 -3 17 -2 14 1 -23 24 -132 38 -359 46 -135 5 -264 13 -288 18 -38 9
-160 79 -150 86 1 2 35 0 73 -5 39 -4 138 -8 221 -8 228 -1 341 -26 479 -103
39 -22 45 -24 25 -7 -32 28 -135 77 -202 95 -33 9 -138 18 -278 24 -124 5
-253 12 -288 15 -62 7 -62 7 -125 76 -68 77 -80 97 -51 84 11 -4 129 -11 264
-15 365 -12 458 -44 639 -214 51 -48 58 -53 35 -23 -40 54 -154 141 -228 177
-107 50 -170 61 -436 70 -135 5 -260 12 -277 15 -34 8 -59 41 -143 189 -28 50
-30 58 -14 52 10 -5 129 -12 264 -17z m2079 -21 c-12 -24 -44 -77 -71 -119
-39 -63 -54 -78 -81 -84 -17 -3 -142 -10 -277 -15 -247 -8 -311 -17 -405 -57
-70 -30 -168 -99 -225 -159 l-55 -58 70 63 c175 157 312 200 645 202 85 0 180
4 210 8 30 5 56 8 57 7 2 -2 -29 -37 -67 -78 l-70 -76 -63 -6 c-34 -4 -163
-10 -287 -15 -200 -8 -234 -12 -305 -35 -73 -24 -192 -83 -183 -91 2 -2 39 14
83 36 126 62 172 70 440 79 132 4 254 11 270 15 l30 8 -30 -23 c-16 -13 -34
-28 -40 -34 -16 -16 48 25 71 45 11 11 27 19 35 19 8 1 32 7 54 15 l40 14 -25
-19 c-38 -29 -147 -80 -178 -84 -15 -1 -37 -8 -49 -14 -32 -18 -189 -32 -353
-32 -80 0 -170 -4 -201 -9 -72 -12 -142 -31 -136 -37 2 -2 31 3 63 12 41 11
131 18 299 23 132 5 241 7 243 6 2 -2 -30 -11 -70 -20 -82 -19 -535 -39 -554
-24 -19 15 -9 47 41 125 147 233 294 353 492 405 62 16 127 22 326 28 136 5
250 11 254 15 20 19 21 0 2 -36z m-41 -230 c-51 -60 -118 -104 -188 -124 l-24
-7 26 24 c15 13 45 47 67 74 32 39 54 55 98 71 32 12 62 22 67 23 5 0 -16 -27
-46 -61z m-2060 -135 c20 -5 93 -52 122 -80 9 -8 -49 16 -108 46 -57 29 -99
63 -58 48 10 -4 30 -10 44 -14z"/>
<path d="M764 1190 c-34 -13 -64 -59 -64 -96 0 -27 -4 -34 -20 -34 -11 0 -20
-5 -20 -11 0 -6 9 -9 20 -6 19 5 20 0 20 -79 0 -78 -2 -85 -22 -94 -18 -7 -9
-9 37 -9 45 0 56 2 43 10 -15 8 -18 24 -18 92 l0 82 50 -3 50 -4 0 -79 c0 -73
-2 -80 -22 -89 -18 -7 -9 -9 37 -9 45 0 56 2 43 10 -15 8 -18 25 -18 102 l0
93 -70 -4 -70 -4 0 44 c0 70 54 103 95 58 23 -25 35 -25 35 -1 0 12 -11 23
-31 30 -37 13 -46 13 -75 1z"/>
<path d="M953 1192 c-32 -3 -47 -22 -18 -22 13 0 15 -23 15 -145 0 -127 -2
-145 -17 -154 -14 -8 -3 -10 42 -10 39 0 53 3 40 8 -19 7 -20 20 -25 167 l-5
159 -32 -3z"/>
<path d="M1473 1192 c-37 -4 -43 -17 -13 -25 19 -5 20 -14 20 -146 0 -138 -1
-142 -22 -151 -17 -7 -8 -9 37 -8 33 0 53 2 44 5 -18 4 -29 44 -29 103 0 63
74 108 100 61 5 -11 10 -49 10 -86 0 -59 -2 -67 -22 -75 -18 -7 -9 -9 37 -9
33 1 53 3 45 6 -25 10 -30 25 -30 100 0 63 -3 74 -22 87 -31 22 -60 20 -93 -6
l-27 -21 6 81 c3 45 2 83 -2 84 -4 2 -22 2 -39 0z"/>
<path d="M1801 1048 c-35 -86 -73 -161 -85 -170 -21 -17 -20 -18 33 -18 52 0
53 0 32 18 -20 16 -21 19 -8 57 l14 40 64 3 65 3 13 -38 c8 -21 16 -44 18 -50
3 -7 -6 -17 -18 -22 -17 -7 12 -10 101 -10 90 0 120 2 108 10 -15 8 -18 25
-18 106 0 83 -2 94 -16 89 -9 -3 -27 -6 -40 -6 -29 0 -32 -16 -4 -23 19 -5 21
-12 18 -84 -3 -76 -4 -78 -30 -81 -34 -4 -41 7 -113 178 -31 74 -60 138 -64
143 -4 4 -36 -61 -70 -145z m81 7 l26 -65 -54 0 c-30 0 -54 3 -54 6 0 14 45
124 51 124 3 0 17 -29 31 -65z"/>
<path d="M2081 1190 c-19 -11 -9 -45 14 -45 13 0 21 8 23 21 3 23 -17 37 -37
24z"/>
<path d="M1090 1057 c-14 -7 -25 -20 -25 -30 0 -26 19 -25 30 1 8 19 17 22 45
20 29 -3 35 -7 38 -29 3 -22 -3 -28 -41 -43 -59 -22 -91 -57 -83 -90 8 -34 45
-43 87 -22 29 14 34 14 49 1 29 -26 70 -12 70 25 -1 12 -2 12 -11 -2 -20 -35
-29 -17 -29 60 0 83 -4 93 -37 111 -28 14 -62 14 -93 -2z m90 -117 c0 -34 -4
-42 -31 -56 -28 -14 -33 -14 -46 -1 -22 21 -9 50 35 75 20 12 38 22 40 22 1 0
2 -18 2 -40z"/>
<path d="M1314 1062 c-21 -13 -32 -47 -23 -69 4 -12 28 -33 53 -48 47 -28 58
-53 32 -74 -19 -16 -62 2 -71 28 -10 33 -25 24 -25 -14 0 -19 5 -35 10 -35 6
0 10 5 10 10 0 7 6 7 19 0 35 -18 69 -12 87 16 25 37 9 72 -46 104 -53 31 -61
63 -18 68 22 3 30 -2 40 -22 15 -35 27 -33 26 4 -1 28 -18 56 -18 30 0 -7 -6
-8 -19 0 -23 12 -42 13 -57 2z"/>
<path d="M2210 1063 c-45 -15 -45 -15 -22 -24 20 -8 22 -15 22 -84 0 -69 -2
-76 -22 -85 -17 -6 -7 -9 42 -9 49 0 59 3 43 9 -21 8 -23 16 -23 75 0 53 4 69
22 87 19 19 22 20 33 5 16 -23 35 -21 35 2 0 40 -65 35 -89 -7 -9 -14 -10 -13
-11 11 0 27 -3 29 -30 20z"/>
</g>
</svg>
